<svg xmlns="http://www.w3.org/2000/svg" version="1.1" xmlns:xlink="http://www.w3.org/1999/xlink" xmlns:svgjs="http://svgjs.dev/svgjs" width="1000" height="1000" viewBox="0 0 1000 1000"><rect width="1000" height="1000" fill="#ffffff"></rect><g transform="matrix(0.7,0,0,0.7,149.5757577350339,337.7296151574429)"><svg viewBox="0 0 396 184" data-background-color="#ffffff" preserveAspectRatio="xMidYMid meet" height="464" width="1000" xmlns="http://www.w3.org/2000/svg" xmlns:xlink="http://www.w3.org/1999/xlink"><g id="tight-bounds" transform="matrix(1,0,0,1,0.2400000901049566,-0.07342730594054103)"><svg viewBox="0 0 395.52 184.14685461188108" height="184.14685461188108" width="395.52"><g><svg viewBox="0 0 395.52 184.14685461188108" height="184.14685461188108" width="395.52"><g transform="matrix(1,0,0,1,0,113.81014375555718)"><svg viewBox="0 0 395.52 70.3367108563239" height="70.3367108563239" width="395.52"><g id="textblocktransform"><svg viewBox="0 0 395.52 70.3367108563239" height="70.3367108563239" width="395.52" id="textblock"><g><svg viewBox="0 0 395.52 70.3367108563239" height="70.3367108563239" width="395.52"><g transform="matrix(1,0,0,1,0,0)"><svg width="395.52" viewBox="3.6500000953674316 -36.83000183105469 209.3100128173828 37.230003356933594" height="70.3367108563239" data-palette-color="#093d65"><path d="M8.1 0L3.65 0 3.65-25.33 6.3-25.33Q7.25-25.33 7.5-24.4L7.5-24.4 7.83-21.8Q9.22-23.53 10.96-24.63 12.7-25.73 15-25.73L15-25.73Q17.57-25.73 19.16-24.3 20.75-22.88 21.45-20.45L21.45-20.45Q21.98-21.83 22.84-22.83 23.7-23.83 24.78-24.48 25.85-25.13 27.06-25.43 28.28-25.73 29.53-25.73L29.53-25.73Q31.53-25.73 33.09-25.09 34.65-24.45 35.74-23.23 36.83-22 37.4-20.21 37.98-18.43 37.98-16.13L37.98-16.13 37.98 0 33.52 0 33.52-16.13Q33.52-19.1 32.23-20.64 30.93-22.18 28.45-22.18L28.45-22.18Q27.35-22.18 26.36-21.79 25.38-21.4 24.63-20.65 23.88-19.9 23.44-18.76 23-17.63 23-16.13L23-16.13 23 0 18.55 0 18.55-16.13Q18.55-19.18 17.32-20.68 16.1-22.18 13.75-22.18L13.75-22.18Q12.1-22.18 10.69-21.29 9.28-20.4 8.1-18.88L8.1-18.88 8.1 0ZM45.2-25.33L49.65-25.33 49.65 0 45.2 0 45.2-25.33ZM50.65-33.27L50.65-33.27Q50.65-32.63 50.39-32.06 50.12-31.5 49.69-31.06 49.25-30.63 48.67-30.38 48.1-30.13 47.45-30.13L47.45-30.13Q46.8-30.13 46.24-30.38 45.67-30.63 45.24-31.06 44.8-31.5 44.55-32.06 44.3-32.63 44.3-33.27L44.3-33.27Q44.3-33.93 44.55-34.51 44.8-35.1 45.24-35.54 45.67-35.98 46.24-36.23 46.8-36.48 47.45-36.48L47.45-36.48Q48.1-36.48 48.67-36.23 49.25-35.98 49.69-35.54 50.12-35.1 50.39-34.51 50.65-33.93 50.65-33.27ZM58-36.83L62.45-36.83 62.45 0 58 0 58-36.83ZM80.32-25.73L80.32-25.73Q82.59-25.73 84.52-24.96 86.44-24.2 87.84-22.76 89.24-21.33 90.03-19.21 90.82-17.1 90.82-14.4L90.82-14.4Q90.82-13.35 90.59-13 90.37-12.65 89.74-12.65L89.74-12.65 72.89-12.65Q72.94-10.25 73.54-8.47 74.14-6.7 75.19-5.51 76.24-4.33 77.69-3.74 79.14-3.15 80.94-3.15L80.94-3.15Q82.62-3.15 83.83-3.54 85.04-3.93 85.92-4.38 86.79-4.83 87.38-5.21 87.97-5.6 88.39-5.6L88.39-5.6Q88.94-5.6 89.24-5.18L89.24-5.18 90.49-3.55Q89.67-2.55 88.52-1.81 87.37-1.07 86.06-0.6 84.74-0.13 83.34 0.11 81.94 0.35 80.57 0.35L80.57 0.35Q77.94 0.35 75.73-0.54 73.52-1.43 71.91-3.14 70.29-4.85 69.39-7.38 68.49-9.9 68.49-13.18L68.49-13.18Q68.49-15.83 69.31-18.13 70.12-20.43 71.64-22.11 73.17-23.8 75.37-24.76 77.57-25.73 80.32-25.73ZM80.42-22.45L80.42-22.45Q77.19-22.45 75.34-20.59 73.49-18.73 73.04-15.43L73.04-15.43 86.82-15.43Q86.82-16.98 86.39-18.26 85.97-19.55 85.14-20.49 84.32-21.43 83.13-21.94 81.94-22.45 80.42-22.45ZM111.99-22.78L110.99-21.15Q110.69-20.6 110.07-20.6L110.07-20.6Q109.69-20.6 109.22-20.88 108.74-21.15 108.05-21.49 107.37-21.83 106.42-22.11 105.47-22.4 104.17-22.4L104.17-22.4Q103.04-22.4 102.14-22.11 101.24-21.83 100.6-21.33 99.97-20.83 99.63-20.16 99.29-19.5 99.29-18.73L99.29-18.73Q99.29-17.75 99.85-17.1 100.42-16.45 101.34-15.98 102.27-15.5 103.44-15.14 104.62-14.78 105.85-14.36 107.09-13.95 108.27-13.45 109.44-12.95 110.37-12.2 111.29-11.45 111.85-10.36 112.42-9.28 112.42-7.75L112.42-7.75Q112.42-6 111.79-4.51 111.17-3.03 109.94-1.94 108.72-0.85 106.94-0.23 105.17 0.4 102.84 0.4L102.84 0.4Q100.19 0.4 98.04-0.46 95.89-1.33 94.39-2.68L94.39-2.68 95.44-4.38Q95.64-4.7 95.92-4.88 96.19-5.05 96.64-5.05L96.64-5.05Q97.09-5.05 97.59-4.7 98.09-4.35 98.8-3.93 99.52-3.5 100.53-3.15 101.54-2.8 103.07-2.8L103.07-2.8Q104.37-2.8 105.34-3.14 106.32-3.48 106.97-4.05 107.62-4.63 107.93-5.38 108.24-6.13 108.24-6.98L108.24-6.98Q108.24-8.03 107.68-8.71 107.12-9.4 106.19-9.89 105.27-10.38 104.08-10.74 102.89-11.1 101.65-11.5 100.42-11.9 99.23-12.41 98.04-12.93 97.12-13.7 96.19-14.48 95.63-15.61 95.07-16.75 95.07-18.38L95.07-18.38Q95.07-19.83 95.67-21.16 96.27-22.5 97.42-23.51 98.57-24.53 100.24-25.13 101.92-25.73 104.07-25.73L104.07-25.73Q106.57-25.73 108.55-24.94 110.54-24.15 111.99-22.78L111.99-22.78ZM125.86 0.4L125.86 0.4Q122.86 0.4 121.25-1.28 119.64-2.95 119.64-6.1L119.64-6.1 119.64-21.6 116.59-21.6Q116.19-21.6 115.91-21.84 115.64-22.08 115.64-22.58L115.64-22.58 115.64-24.35 119.79-24.88 120.81-32.7Q120.86-33.08 121.14-33.31 121.41-33.55 121.84-33.55L121.84-33.55 124.09-33.55 124.09-24.83 131.34-24.83 131.34-21.6 124.09-21.6 124.09-6.4Q124.09-4.8 124.86-4.03 125.64-3.25 126.86-3.25L126.86-3.25Q127.56-3.25 128.08-3.44 128.59-3.63 128.96-3.85 129.34-4.08 129.6-4.26 129.86-4.45 130.06-4.45L130.06-4.45Q130.41-4.45 130.69-4.03L130.69-4.03 131.99-1.9Q130.84-0.83 129.21-0.21 127.59 0.4 125.86 0.4ZM147.09-25.73L147.09-25.73Q149.86-25.73 152.1-24.8 154.34-23.88 155.9-22.18 157.46-20.48 158.3-18.06 159.14-15.65 159.14-12.68L159.14-12.68Q159.14-9.68 158.3-7.28 157.46-4.88 155.9-3.18 154.34-1.48 152.1-0.56 149.86 0.35 147.09 0.35L147.09 0.35Q144.31 0.35 142.07-0.56 139.84-1.48 138.26-3.18 136.69-4.88 135.84-7.28 134.99-9.68 134.99-12.68L134.99-12.68Q134.99-15.65 135.84-18.06 136.69-20.48 138.26-22.18 139.84-23.88 142.07-24.8 144.31-25.73 147.09-25.73ZM147.09-3.13L147.09-3.13Q150.84-3.13 152.69-5.64 154.54-8.15 154.54-12.65L154.54-12.65Q154.54-17.18 152.69-19.7 150.84-22.23 147.09-22.23L147.09-22.23Q145.19-22.23 143.79-21.58 142.39-20.93 141.45-19.7 140.51-18.48 140.05-16.69 139.59-14.9 139.59-12.65L139.59-12.65Q139.59-10.4 140.05-8.63 140.51-6.85 141.45-5.64 142.39-4.42 143.79-3.78 145.19-3.13 147.09-3.13ZM169.08 0L164.63 0 164.63-25.33 167.28-25.33Q168.23-25.33 168.48-24.4L168.48-24.4 168.83-21.65Q170.48-23.48 172.52-24.6 174.56-25.73 177.23-25.73L177.23-25.73Q179.31-25.73 180.9-25.04 182.48-24.35 183.55-23.09 184.61-21.83 185.16-20.05 185.71-18.28 185.71-16.13L185.71-16.13 185.71 0 181.26 0 181.26-16.13Q181.26-19 179.95-20.59 178.63-22.18 175.93-22.18L175.93-22.18Q173.96-22.18 172.25-21.23 170.53-20.28 169.08-18.65L169.08-18.65 169.08 0ZM202.46-25.73L202.46-25.73Q204.73-25.73 206.66-24.96 208.58-24.2 209.98-22.76 211.38-21.33 212.17-19.21 212.96-17.1 212.96-14.4L212.96-14.4Q212.96-13.35 212.73-13 212.51-12.65 211.88-12.65L211.88-12.65 195.03-12.65Q195.08-10.25 195.68-8.47 196.28-6.7 197.33-5.51 198.38-4.33 199.83-3.74 201.28-3.15 203.08-3.15L203.08-3.15Q204.76-3.15 205.97-3.54 207.18-3.93 208.06-4.38 208.93-4.83 209.52-5.21 210.11-5.6 210.53-5.6L210.53-5.6Q211.08-5.6 211.38-5.18L211.38-5.18 212.63-3.55Q211.81-2.55 210.66-1.81 209.51-1.07 208.19-0.6 206.88-0.13 205.48 0.11 204.08 0.35 202.71 0.35L202.71 0.35Q200.08 0.35 197.87-0.54 195.66-1.43 194.04-3.14 192.43-4.85 191.53-7.38 190.63-9.9 190.63-13.18L190.63-13.18Q190.63-15.83 191.44-18.13 192.26-20.43 193.78-22.11 195.31-23.8 197.51-24.76 199.71-25.73 202.46-25.73ZM202.56-22.45L202.56-22.45Q199.33-22.45 197.48-20.59 195.63-18.73 195.18-15.43L195.18-15.43 208.96-15.43Q208.96-16.98 208.53-18.26 208.11-19.55 207.28-20.49 206.46-21.43 205.27-21.94 204.08-22.45 202.56-22.45Z" opacity="1" transform="matrix(1,0,0,1,0,0)" fill="#000000" class="wordmark-text-0" data-fill-palette-color="primary" id="text-0"></path></svg></g></svg></g></svg></g></svg></g><g transform="matrix(1,0,0,1,101.99382141014004,0)"><svg viewBox="0 0 191.5323571797199 97.20533440343965" height="97.20533440343965" width="191.5323571797199"><g><svg xmlns="http://www.w3.org/2000/svg" xmlns:xlink="http://www.w3.org/1999/xlink" version="1.1" x="8" y="0" viewBox="-57.75 102.8239974975586 49.224002838134766 27.258995056152344" enable-background="new -62.75 91 58.5 48" xml:space="preserve" height="97.20533440343965" width="175.5323571797199" class="icon-icon-0" data-fill-palette-color="accent" id="icon-0"><g fill="#f98e54" data-fill-palette-color="accent"><path d="M-48 130.083c-5.467 0-9.75-1.72-9.75-3.916s4.283-3.917 9.75-3.917 9.75 1.721 9.75 3.917S-42.533 130.083-48 130.083zM-48 122.75c-5.014 0-9.25 1.564-9.25 3.417 0 1.852 4.236 3.416 9.25 3.416s9.25-1.564 9.25-3.416C-38.75 124.314-42.986 122.75-48 122.75z" fill="#000000" data-fill-palette-color="accent"></path></g><g fill="#f98e54" data-fill-palette-color="accent"><ellipse cx="-48" cy="126.167" rx="3.886" ry="1.5" fill="#000000" data-fill-palette-color="accent"></ellipse></g><g fill="#f98e54" data-fill-palette-color="accent"><path d="M-13.333 106.842c-2.74 0-4.807-0.863-4.807-2.009s2.066-2.009 4.807-2.009c2.741 0 4.807 0.863 4.807 2.009S-10.593 106.842-13.333 106.842zM-13.333 103.324c-2.538 0-4.307 0.795-4.307 1.509s1.769 1.509 4.307 1.509 4.307-0.795 4.307-1.509S-10.795 103.324-13.333 103.324z" fill="#000000" data-fill-palette-color="accent"></path></g><g fill="#f98e54" data-fill-palette-color="accent"><ellipse cx="-13.333" cy="104.833" rx="1.864" ry="0.719" fill="#000000" data-fill-palette-color="accent"></ellipse></g><g fill="#f98e54" data-fill-palette-color="accent"><path d="M-47.056 126.74l-0.139-0.48c3.215-0.931 6.788-1.92 10.242-2.877 9.991-2.767 23.674-6.556 23.478-7.871-0.021-0.144-0.518-0.848-8.143-0.637-12.018 0.324-13.716-0.588-13.853-1.423-0.181-1.108 2.938-2.148 3.898-2.441l18.156-6.413 0.167 0.471-18.167 6.417c-1.785 0.545-3.635 1.431-3.561 1.887 0.052 0.319 1.172 1.339 13.345 1.003 7.431-0.204 8.55 0.392 8.651 1.063 0.236 1.58-7.456 3.891-23.839 8.428C-40.272 124.821-43.843 125.811-47.056 126.74z" fill="#000000" data-fill-palette-color="accent"></path></g></svg></g></svg></g><g><rect width="101.99382141014004" height="6.343037172508894" y="89.86229723093075" x="293.5261785898599" fill="#000000" data-fill-palette-color="accent"></rect><rect width="101.99382141014004" height="6.343037172508894" y="89.86229723093075" x="0" fill="#000000" data-fill-palette-color="accent"></rect><rect width="101.99382141014004" height="6.343037172508894" y="77.17622288591296" x="293.5261785898599" fill="#000000" data-fill-palette-color="accent"></rect><rect width="101.99382141014004" height="6.343037172508894" y="77.17622288591296" x="0" fill="#000000" data-fill-palette-color="accent"></rect></g></svg></g><defs></defs></svg><rect width="395.52" height="184.14685461188108" fill="none" stroke="none" visibility="hidden"></rect></g></svg></g></svg>